<svg width="18" height="18" viewBox="0 0 18 18" fill="none" xmlns="http://www.w3.org/2000/svg">
<g clip-path="url(#clip0_15_147)">
<path d="M16.1175 9.1364C16.1175 8.53896 16.069 8.10299 15.9641 7.65088H9.14197V10.3474H13.1464C13.0657 11.0175 12.6297 12.0267 11.6609 12.7049L11.6473 12.7952L13.8044 14.4662L13.9538 14.4811C15.3263 13.2135 16.1175 11.3485 16.1175 9.1364Z" fill="#4285F4"/>
<path d="M9.14191 16.2411C11.1038 16.2411 12.7507 15.5952 13.9537 14.4811L11.6608 12.7048C11.0473 13.1327 10.2237 13.4315 9.14191 13.4315C7.22042 13.4315 5.58957 12.1639 5.00822 10.412L4.92301 10.4192L2.68009 12.155L2.65076 12.2366C3.84563 14.6102 6.29999 16.2411 9.14191 16.2411Z" fill="#34A853"/>
<path d="M5.00824 10.412C4.85484 9.95993 4.76607 9.47548 4.76607 8.97494C4.76607 8.47435 4.85484 7.98996 5.00017 7.53785L4.9961 7.44156L2.72508 5.67786L2.65077 5.7132C2.15831 6.69818 1.87573 7.80428 1.87573 8.97494C1.87573 10.1456 2.15831 11.2516 2.65077 12.2366L5.00824 10.412Z" fill="#FBBC05"/>
<path d="M9.14191 4.51832C10.5063 4.51832 11.4267 5.10768 11.9515 5.6002L14.0022 3.59795C12.7427 2.42729 11.1038 1.70874 9.14191 1.70874C6.29999 1.70874 3.84563 3.33958 2.65076 5.71319L5.00015 7.53784C5.58957 5.78588 7.22042 4.51832 9.14191 4.51832Z" fill="#EB4335"/>
</g>
<defs>
<clipPath id="clip0_15_147">
<rect width="14.25" height="14.5825" fill="white" transform="translate(1.875 1.70874)"/>
</clipPath>
</defs>
</svg>
