<svg width="24" height="24" viewBox="0 0 24 24" fill="none" xmlns="http://www.w3.org/2000/svg">
<path d="M20.0524 3.00012H3.94765C3.70178 3.01672 3.47027 3.1219 3.29602 3.29615C3.12177 3.47039 3.0166 3.7019 3 3.94777V20.0525C3.00139 20.3034 3.10168 20.5436 3.2791 20.721C3.45651 20.8984 3.69674 20.9987 3.94765 21.0001H12.5686V13.9897H10.2942V11.3373H12.6628V9.34777C12.6118 8.87064 12.6666 8.38812 12.8233 7.9346C12.9801 7.48107 13.2349 7.06769 13.5697 6.72391C13.9045 6.38014 14.311 6.11442 14.7602 5.9457C15.2094 5.77697 15.6903 5.70939 16.1686 5.74777C17.1162 5.74777 17.9686 5.842 18.2524 5.842V8.30589H16.8314C15.6942 8.30589 15.5047 8.87448 15.5047 9.63259V11.3373H18.1571L17.778 14.0849H15.4105V21.0001H20.0524C20.3033 20.9987 20.5435 20.8984 20.7209 20.721C20.8983 20.5436 20.9986 20.3034 21 20.0525V3.94777C20.9834 3.7019 20.8782 3.47039 20.704 3.29615C20.5297 3.1219 20.2982 3.01672 20.0524 3.00012V3.00012Z" fill="#6E7491"/>
</svg>
