<svg width="24" height="24" viewBox="0 0 24 24" fill="none" xmlns="http://www.w3.org/2000/svg">
<path d="M23 6.01274C22.7129 6.44183 22.3882 6.84196 22.0259 7.21316C21.6636 7.58435 21.2705 7.9232 20.8467 8.22968C20.8535 8.32504 20.8586 8.41869 20.8621 8.51063C20.8655 8.60258 20.8672 8.69623 20.8672 8.79158C20.8672 9.64976 20.7749 10.4977 20.5903 11.3355C20.4058 12.1732 20.1392 12.9837 19.7905 13.7669C19.2847 14.9044 18.6523 15.9209 17.8936 16.8165C17.1348 17.7122 16.2751 18.4699 15.3147 19.0897C14.3543 19.7095 13.3066 20.1828 12.1719 20.5097C11.0371 20.8367 9.84766 21.0001 8.60351 21.0001C7.42773 21.0001 6.281 20.8384 5.16333 20.5148C4.04565 20.1913 2.99121 19.7095 2 19.0692C2.33496 19.1101 2.67676 19.1305 3.02539 19.1305C4.00293 19.1305 4.94799 18.9739 5.86059 18.6606C6.77319 18.3473 7.6123 17.8909 8.37792 17.2916C7.91992 17.2848 7.479 17.2081 7.05517 17.0617C6.63134 16.9153 6.2434 16.711 5.89135 16.4487C5.5393 16.1865 5.23168 15.8749 4.9685 15.5139C4.70531 15.153 4.50194 14.7545 4.35839 14.3186C4.49511 14.3391 4.63012 14.3561 4.76342 14.3697C4.89672 14.3833 5.03173 14.3901 5.16845 14.3901C5.55126 14.3901 5.92723 14.3391 6.29638 14.2369C5.79052 14.1347 5.32739 13.9542 4.90698 13.6954C4.48657 13.4366 4.12255 13.1216 3.81493 12.7504C3.50732 12.3792 3.26806 11.9604 3.09716 11.4938C2.92626 11.0273 2.84081 10.5386 2.84081 10.0278V9.97668C3.44238 10.3172 4.09521 10.4977 4.79931 10.5181C4.49853 10.3138 4.23022 10.0805 3.99438 9.81833C3.75854 9.55611 3.55859 9.27175 3.39453 8.96527C3.23046 8.65878 3.104 8.33526 3.01513 7.99471C2.92626 7.65417 2.88183 7.30341 2.88183 6.94243C2.88183 6.56102 2.92968 6.18813 3.02538 5.82374C3.12109 5.45936 3.26806 5.11371 3.4663 4.78678C4.01318 5.46106 4.62158 6.06553 5.2915 6.60018C5.96142 7.13484 6.67407 7.59287 7.42944 7.97428C8.18481 8.35569 8.97607 8.65707 9.80321 8.87843C10.6304 9.09978 11.478 9.23089 12.3462 9.27176C12.3052 9.11511 12.2761 8.95335 12.259 8.78648C12.2419 8.61961 12.2334 8.45445 12.2334 8.29099C12.2334 7.69844 12.3462 7.14165 12.5718 6.62062C12.7974 6.09958 13.105 5.64495 13.4946 5.25673C13.8843 4.86851 14.3406 4.56202 14.8635 4.33726C15.3865 4.1125 15.9453 4.00012 16.54 4.00012C17.1416 4.00012 17.7141 4.11761 18.2576 4.35259C18.801 4.58756 19.2778 4.923 19.688 5.35889C20.1733 5.26354 20.6433 5.12903 21.0979 4.95535C21.5525 4.78167 21.9917 4.56883 22.4155 4.31683C22.2583 4.81403 22.0173 5.26695 21.6926 5.6756C21.3679 6.08425 20.98 6.4214 20.5288 6.68702C21.3901 6.58486 22.2139 6.3601 23 6.01274L23 6.01274Z" fill="#6E7491"/>
</svg>
