<svg width="32" height="33" viewBox="0 0 32 33" fill="none" xmlns="http://www.w3.org/2000/svg">
<path fill-rule="evenodd" clip-rule="evenodd" d="M12 13.8333C12 11.2038 13.8571 9.5 16 9.5C18.1429 9.5 20 11.2038 20 13.8333C20 14.1877 19.873 14.8287 19.537 15.7635C19.2155 16.6582 18.7581 17.6732 18.2317 18.72C17.5144 20.1464 16.7004 21.5699 16 22.7372C15.2996 21.5699 14.4856 20.1464 13.7683 18.72C13.2419 17.6732 12.7845 16.6582 12.463 15.7635C12.127 14.8287 12 14.1877 12 13.8333ZM16 7.5C12.6863 7.5 10 10.1667 10 13.8333C10 16.6552 13.5537 22.6359 15.1912 25.242C15.5709 25.8462 16.4291 25.8462 16.8088 25.242C18.4463 22.6359 22 16.6552 22 13.8333C22 10.1667 19.3137 7.5 16 7.5ZM16 15.5C17.1046 15.5 18 14.6046 18 13.5C18 12.3954 17.1046 11.5 16 11.5C14.8954 11.5 14 12.3954 14 13.5C14 14.6046 14.8954 15.5 16 15.5Z" fill="#6E7491"/>
</svg>
