<svg width="33" height="33" viewBox="0 0 33 33" fill="none" xmlns="http://www.w3.org/2000/svg">
<path fill-rule="evenodd" clip-rule="evenodd" d="M16.5 21.5C13.0953 21.5 10.1137 19.484 8.6755 16.5C10.1137 13.516 13.0953 11.5 16.5 11.5C19.9047 11.5 22.8863 13.516 24.3245 16.5C22.8863 19.484 19.9047 21.5 16.5 21.5ZM16.5 9.5C21.0502 9.5 24.9389 12.4026 26.5 16.5C24.9389 20.5974 21.0502 23.5 16.5 23.5C11.9498 23.5 8.06109 20.5974 6.5 16.5C8.06109 12.4026 11.9498 9.5 16.5 9.5ZM16.5 19.5C18.1569 19.5 19.5 18.1569 19.5 16.5C19.5 14.8431 18.1569 13.5 16.5 13.5C14.8431 13.5 13.5 14.8431 13.5 16.5C13.5 18.1569 14.8431 19.5 16.5 19.5Z" fill="#6E7491"/>
</svg>
