<svg width="33" height="33" viewBox="0 0 33 33" fill="none" xmlns="http://www.w3.org/2000/svg">
<g clip-path="url(#clip0_5_1259)">
<path fill-rule="evenodd" clip-rule="evenodd" d="M13 14.3333C13 11.7038 14.8571 10 17 10C19.1429 10 21 11.7038 21 14.3333C21 14.6877 20.873 15.3287 20.537 16.2635C20.2155 17.1582 19.7581 18.1732 19.2317 19.22C18.5144 20.6464 17.7004 22.0699 17 23.2372C16.2996 22.0699 15.4856 20.6464 14.7683 19.22C14.2419 18.1732 13.7845 17.1582 13.463 16.2635C13.127 15.3287 13 14.6877 13 14.3333ZM17 8C13.6863 8 11 10.6667 11 14.3333C11 17.1552 14.5537 23.1359 16.1912 25.742C16.5709 26.3462 17.4291 26.3462 17.8088 25.742C19.4463 23.1359 23 17.1552 23 14.3333C23 10.6667 20.3137 8 17 8ZM17 16C18.1046 16 19 15.1046 19 14C19 12.8954 18.1046 12 17 12C15.8954 12 15 12.8954 15 14C15 15.1046 15.8954 16 17 16Z" fill="#6E7491"/>
</g>
<defs>
<clipPath id="clip0_5_1259">
<rect x="0.5" y="0.5" width="32" height="32" rx="4" fill="white"/>
</clipPath>
</defs>
</svg>
