<svg width="32" height="32" viewBox="0 0 32 32" fill="none" xmlns="http://www.w3.org/2000/svg">
<path d="M15.2854 23.7601C15.2839 24.093 15.5533 24.3637 15.8862 24.3637C16.217 24.3637 16.4856 24.0963 16.487 23.7655L16.4908 22.9254C19.1946 22.7273 20.7415 21.1804 20.7415 19.1094C20.7415 16.7507 18.6385 15.8367 16.9766 15.4276L16.5099 15.3061L16.5227 11.2024C17.471 11.3292 18.1819 11.7738 18.4959 12.4755C18.641 12.7999 18.9258 13.0753 19.2813 13.0753H19.5359C20.0985 13.0753 20.5658 12.6007 20.3856 12.0678C19.9021 10.6388 18.4705 9.63357 16.5291 9.47658L16.5329 8.60346C16.5343 8.27061 16.2649 8.00002 15.9321 8.00002C15.6012 8.00002 15.3327 8.26746 15.3312 8.59828L15.3274 9.48937C13.0327 9.71948 11.3516 11.1513 11.3516 13.2159C11.3516 15.0377 12.6555 16.1051 14.7585 16.674L15.3082 16.821L15.2955 21.174C14.2791 21.0489 13.4497 20.5753 13.1227 19.7359C12.9905 19.3966 12.7013 19.1094 12.3372 19.1094H12.0566C11.4827 19.1094 11.0118 19.5998 11.182 20.1478C11.6814 21.755 13.1439 22.7658 15.2891 22.9254L15.2854 23.7601ZM16.4972 21.174L16.5099 17.1534C17.8075 17.5114 18.7855 17.9844 18.7855 19.0902C18.7855 20.2088 17.8523 20.9951 16.4972 21.174ZM15.3146 14.9865C14.3622 14.7053 13.3139 14.2003 13.3203 13.1009C13.3203 12.1421 14.081 11.3942 15.321 11.2088L15.3146 14.9865Z" fill="#6E7491"/>
</svg>
