<svg width="170" height="538" viewBox="0 0 170 538" fill="none" xmlns="http://www.w3.org/2000/svg">
<path fill-rule="evenodd" clip-rule="evenodd" d="M128.227 24C127.951 24.0017 127.728 24.2268 127.73 24.503L127.756 29.0029C127.758 29.279 127.983 29.5016 128.259 29.4999C128.536 29.4983 128.758 29.2731 128.756 28.997L128.737 25.7041L143.094 39.8924L139.801 39.9119C139.525 39.9135 139.303 40.1387 139.304 40.4148C139.306 40.691 139.531 40.9135 139.807 40.9119L144.307 40.8853C144.583 40.8836 144.806 40.6584 144.804 40.3823L144.778 35.8824C144.776 35.6062 144.551 35.3837 144.275 35.3853C143.998 35.387 143.776 35.6122 143.778 35.8883L143.797 39.1811L129.44 24.9929L132.733 24.9734C133.009 24.9717 133.231 24.7466 133.23 24.4704C133.228 24.1943 133.003 23.9718 132.727 23.9734L128.227 24ZM111.309 27.9262H121.384V37.877V38.377H121.884H133.229V49.1639V49.6639H133.729H145.15V48.6639H134.229V37.877V37.377H133.729H122.384V27.4262V26.9262H121.884H111.309V27.9262Z" fill="black" fill-opacity="0.5"/>
<path fill-rule="evenodd" clip-rule="evenodd" d="M130.25 359C129.974 359.002 129.752 359.227 129.753 359.503L129.78 364.003C129.781 364.279 130.007 364.502 130.283 364.5C130.559 364.498 130.781 364.273 130.78 363.997L130.76 360.704L145.117 374.892L141.825 374.912C141.549 374.914 141.326 375.139 141.328 375.415C141.329 375.691 141.554 375.914 141.831 375.912L146.33 375.885C146.607 375.884 146.829 375.658 146.828 375.382L146.801 370.882C146.799 370.606 146.574 370.384 146.298 370.385C146.022 370.387 145.799 370.612 145.801 370.888L145.82 374.181L131.463 359.993L134.756 359.973C135.032 359.972 135.255 359.747 135.253 359.47C135.251 359.194 135.026 358.972 134.75 358.973L130.25 359ZM113.333 362.926H123.409V372.877V373.377H123.909H135.253V384.164V384.664H135.753H147.174V383.664H136.253V372.877V372.377H135.753H124.409V362.426V361.926H123.909H113.333V362.926Z" fill="black" fill-opacity="0.5"/>
<path d="M30 1H140C156.014 1 169 14.0415 169 30.0604V31.1255V32.1891V33.2512V34.3117V35.3707V36.4282V37.4841V38.5386V39.5915V40.643V41.6929V42.7414V43.7884V44.8339V45.8779V46.9205V47.9616V49.0013V50.0395V51.0763V52.1117V53.1456V54.1781V55.2092V56.2389V57.2672V58.2941V59.3196V60.3437V61.3664V62.3878V63.4078V64.4264V65.4437V66.4597V67.4743V68.4875V69.4995V70.5101V71.5194V72.5274V73.534V74.5394V75.5435V76.5463V77.5479V78.5481V79.5471V80.5448V81.5413V82.5365V83.5304V84.5232V85.5147V86.5049V87.494V88.4818V89.4685V90.4539V91.4381V92.4212V93.403V94.3837V95.3632V96.3416V97.3188V98.2948V99.2697V100.243V101.216V102.188V103.158V104.127V105.095V106.062V107.028V107.993V108.957V109.919V110.881V111.842V112.801V113.76V114.717V115.673V116.628V117.583V118.536V119.488V120.439V121.39V122.339V123.287V124.234V125.18V126.126V127.07V128.013V128.955V129.897V130.837V131.777V132.715V133.653V134.59V135.526V136.46V137.394V138.327V139.26V140.191V141.121V142.051V142.98V143.907V144.834V145.761V146.686V147.61V148.534V149.457V150.379V151.3V152.22V153.14V154.058V154.976V155.894V156.81V157.726V158.64V159.555V160.468V161.381V162.292V163.204V164.114V165.024V165.933V166.841V167.748V168.655V169.561V170.467V171.372V172.276V173.179V174.082V174.984V175.886V176.786V177.687V178.586V179.485V180.384V181.281V182.178V183.075V183.971V184.866V185.761V186.655V187.549V188.442V189.334V190.226V191.117V192.008V192.899V193.788V194.678V195.566V196.455V197.342V198.23V199.116V200.003V200.888V201.774V202.658V203.543V204.427V205.31V206.193V207.076V207.958V208.84V209.721V210.602V211.482V212.363V213.242V214.122V215V215.879V216.757V217.635V218.512V219.39V220.266V221.143V222.019V222.895V223.77V224.645V225.52V226.394V227.269V228.143V229.016V229.89V230.763V231.635V232.508V233.38V234.252V235.124V235.996V236.867V237.738V238.609V239.48V240.35V241.221V242.091V242.96V243.83V244.7V245.569V246.438V247.307V248.176V249.045V249.914V250.782V251.65V252.519V253.387V254.255V255.123V255.99V256.858V257.726V258.593V259.461V260.328V261.196V262.063V262.93V263.797V264.664V265.532V266.399V267.266V268.133V269V269.867V270.734V271.601V272.468V273.335V274.203V275.07V275.937V276.804V277.672V278.539V279.407V280.274V281.142V282.009V282.877V283.745V284.613V285.481V286.35V287.218V288.086V288.955V289.824V290.693V291.562V292.431V293.3V294.17V295.039V295.909V296.779V297.65V298.52V299.391V300.262V301.133V302.004V302.876V303.748V304.62V305.492V306.365V307.237V308.11V308.984V309.857V310.731V311.606V312.48V313.355V314.23V315.105V315.981V316.857V317.734V318.61V319.488V320.365V321.243V322.121V323V323.878V324.758V325.637V326.518V327.398V328.279V329.16V330.042V330.924V331.807V332.69V333.573V334.457V335.341V336.226V337.112V337.997V338.884V339.77V340.658V341.545V342.434V343.322V344.212V345.101V345.992V346.882V347.774V348.666V349.558V350.451V351.345V352.239V353.134V354.029V354.925V355.822V356.719V357.616V358.515V359.414V360.313V361.213V362.114V363.016V363.918V364.821V365.724V366.628V367.533V368.439V369.345V370.252V371.159V372.067V372.976V373.886V374.796V375.708V376.619V377.532V378.445V379.36V380.274V381.19V382.106V383.024V383.942V384.86V385.78V386.7V387.621V388.543V389.466V390.39V391.314V392.239V393.166V394.092V395.02V395.949V396.879V397.809V398.74V399.673V400.606V401.54V402.474V403.41V404.347V405.285V406.223V407.163V408.103V409.045V409.987V410.93V411.874V412.82V413.766V414.713V415.661V416.61V417.561V418.512V419.464V420.417V421.371V422.327V423.283V424.24V425.199V426.158V427.119V428.08V429.043V430.007V430.972V431.938V432.905V433.873V434.842V435.812V436.784V437.757V438.73V439.705V440.681V441.658V442.637V443.616V444.597V445.579V446.562V447.546V448.532V449.518V450.506V451.495V452.485V453.477V454.47V455.464V456.459V457.455V458.453V459.452V460.452V461.454V462.456V463.461V464.466V465.473V466.481V467.49V468.501V469.512V470.526V471.54V472.556V473.574V474.592V475.612V476.634V477.656V478.68V479.706V480.733V481.761V482.791V483.822V484.854V485.888V486.924V487.96V488.999V490.038V491.079V492.122V493.166V494.212V495.259V496.307V497.357V498.408V499.461V500.516V501.572V502.629V503.688V504.749V505.811V506.874V507.94C169 523.958 156.014 537 140 537H30C13.9837 537 1 524.016 1 508V30C1 13.9837 13.9837 1 30 1Z" stroke="black" stroke-opacity="0.2" stroke-width="2"/>
<path fill-rule="evenodd" clip-rule="evenodd" d="M47.5831 36C47.5831 40.8787 44.0283 44.9698 39.3005 45.8325C39.32 45.6615 39.3387 45.4797 39.3582 45.2913L39.3582 45.2912L39.3765 45.1142C39.4871 44.053 39.6415 42.724 40.0668 41.4032C40.491 40.0859 41.1769 38.8026 42.334 37.8184C43.4859 36.8387 45.1457 36.1203 47.5831 35.9997V36ZM38.3639 45.1845C38.3329 45.484 38.3059 45.7446 38.2769 45.9665C38.0011 45.9887 37.722 46 37.4402 46C36.924 46 36.4171 45.9621 35.9221 45.889C36.0281 43.2457 35.477 41.1919 34.5697 39.6105C33.6482 38.0045 32.3757 36.9143 31.1115 36.191C29.8501 35.4694 28.5897 35.1083 27.6701 34.9597C27.5617 34.9421 27.4569 34.9274 27.3565 34.9153C27.3915 34.596 27.4418 34.281 27.5066 33.9712C31.9942 32.9898 35.1373 32.653 38.1201 32.7872C40.9979 32.9166 43.7485 33.4847 47.4481 34.3664C47.4831 34.5758 47.5114 34.7874 47.533 35.0009C44.9126 35.1307 43.0318 35.912 41.6861 37.0567C40.3449 38.1974 39.5762 39.6641 39.1149 41.0967C38.6547 42.5259 38.4928 43.9468 38.3819 45.0106L38.3639 45.1845ZM47.2029 33.2804C46.0034 29.0907 42.1015 26 37.4402 26C32.9269 26 29.1254 28.8976 27.7999 32.885C32.073 31.9763 35.1818 31.654 38.165 31.7882C41.0145 31.9163 43.7292 32.4604 47.2029 33.2804ZM27.2974 36C27.2974 40.6519 30.5293 44.5877 34.9284 45.6915C35.0001 43.2918 34.4881 41.4777 33.7024 40.1082C32.8847 38.683 31.7539 37.7107 30.6149 37.059C29.473 36.4057 28.3302 36.0793 27.5106 35.9468C27.4363 35.9348 27.3653 35.9245 27.2977 35.9157C27.2975 35.9438 27.2974 35.9719 27.2974 36ZM47.5372 35.0441L47.583 35.9717C47.5822 35.659 47.5667 35.3496 47.5372 35.0441ZM49.5831 36C49.5831 42.6274 44.1465 48 37.4402 48C30.7339 48 25.2974 42.6274 25.2974 36C25.2974 29.3726 30.7339 24 37.4402 24C44.1465 24 49.5831 29.3726 49.5831 36ZM38.6139 36.5C38.6139 37.3173 37.9402 38 37.0841 38C36.2281 38 35.5544 37.3173 35.5544 36.5C35.5544 35.6827 36.2281 35 37.0841 35C37.9402 35 38.6139 35.6827 38.6139 36.5ZM39.6139 36.5C39.6139 37.8807 38.4813 39 37.0841 39C35.687 39 34.5544 37.8807 34.5544 36.5C34.5544 35.1193 35.687 34 37.0841 34C38.4813 34 39.6139 35.1193 39.6139 36.5Z" fill="black" fill-opacity="0.3"/>
<path d="M14.1665 55H63.7498" stroke="black" stroke-opacity="0.3"/>
<path d="M103.214 55H152.798" stroke="black" stroke-opacity="0.3"/>
</svg>
