<svg width="76" height="24" viewBox="0 0 76 24" fill="none" xmlns="http://www.w3.org/2000/svg">
<g clip-path="url(#clip0_20_40526)">
<path d="M32.9332 23.6537H26.7767L30.6275 0.421062H36.7837L32.9332 23.6537Z" fill="white"/>
<path d="M55.2512 0.988991C54.0369 0.518912 52.1108 -0.000114441 49.7293 -0.000114441C43.6495 -0.000114441 39.3682 3.16331 39.3419 7.68606C39.2914 11.0229 42.4072 12.8763 44.7376 13.9889C47.1195 15.1259 47.9292 15.8679 47.9292 16.8814C47.9049 18.4378 46.0045 19.1552 44.2319 19.1552C41.774 19.1552 40.4569 18.7853 38.4555 17.9194L37.6448 17.5482L36.7833 22.7634C38.2272 23.4053 40.8875 23.9749 43.6495 23.9999C50.1094 23.9999 54.315 20.8854 54.3648 16.0657C54.3894 13.421 52.7441 11.3945 49.197 9.73851C47.0437 8.6755 45.725 7.95872 45.725 6.87106C45.7503 5.88229 46.8404 4.86953 49.2711 4.86953C51.2725 4.81992 52.7431 5.28935 53.8571 5.7591L54.4139 6.0058L55.2512 0.988991V0.988991Z" fill="white"/>
<path d="M63.4338 15.4232C63.9408 14.0885 65.8917 8.9229 65.8917 8.9229C65.8662 8.9725 66.3977 7.56358 66.7017 6.69864L67.132 8.70051C67.132 8.70051 68.2979 14.2616 68.551 15.4232C67.5889 15.4232 64.6498 15.4232 63.4338 15.4232ZM71.0332 0.421062H66.2712C64.8026 0.421062 63.6869 0.840882 63.0533 2.34868L53.9086 23.6534H60.3685C60.3685 23.6534 61.432 20.7859 61.6606 20.1683C62.3692 20.1683 68.6534 20.1683 69.5651 20.1683C69.7418 20.984 70.2997 23.6534 70.2997 23.6534H76L71.0332 0.421062V0.421062Z" fill="white"/>
<path d="M21.6345 0.421062L15.6052 16.2635L14.9464 13.0505C13.8317 9.34305 10.3358 5.31501 6.43456 3.31217L11.9572 23.6291H18.4675L28.1445 0.421062H21.6345V0.421062Z" fill="white"/>
<path d="M10.0066 0.421062H0.101335L0 0.890485C7.72672 2.81843 12.844 7.46568 14.9464 13.0515L12.7931 2.37398C12.4386 0.890156 11.3492 0.470009 10.0066 0.421062Z" fill="white"/>
</g>
<defs>
<clipPath id="clip0_20_40526">
<rect width="76" height="24" fill="white"/>
</clipPath>
</defs>
</svg>
