<svg width="25" height="25" viewBox="0 0 25 25" fill="none" xmlns="http://www.w3.org/2000/svg">
<path d="M9.42525 12.3431L0.67157 3.58946C-0.134184 2.78371 -0.134185 1.47732 0.671569 0.67157C1.47732 -0.134183 2.78371 -0.134184 3.58946 0.67157L12.3431 9.42525L21.0968 0.67157C21.9026 -0.134185 23.209 -0.134184 24.0147 0.67157C24.8205 1.47732 24.8205 2.78371 24.0147 3.58946L15.261 12.3431L24.0147 21.0968C24.8205 21.9026 24.8205 23.209 24.0147 24.0147C23.209 24.8205 21.9026 24.8205 21.0968 24.0147L12.3431 15.261L3.58946 24.0147C2.78371 24.8205 1.47732 24.8205 0.671568 24.0147C-0.134185 23.209 -0.134187 21.9026 0.671567 21.0968L9.42525 12.3431Z" fill="#6E7491"/>
</svg>
